ffmpeg version 3.4.8-0ubuntu0.2 Copyright (c) 2000-2020 the FFmpeg developers
  built with gcc 7 (Ubuntu 7.5.0-3ubuntu1~18.04)
  configuration: --prefix=/usr --extra-version=0ubuntu0.2 --toolchain=hardened --libdir=/usr/lib/x86_64-linux-gnu --incdir=/usr/include/x86_64-linux-gnu --enable-gpl --disable-stripping --enable-avresample --enable-avisynth --enable-gnutls --enable-ladspa --enable-libass --enable-libbluray --enable-libbs2b --enable-libcaca --enable-libcdio --enable-libflite --enable-libfontconfig --enable-libfreetype --enable-libfribidi --enable-libgme --enable-libgsm --enable-libmp3lame --enable-libmysofa --enable-libopenjpeg --enable-libopenmpt --enable-libopus --enable-libpulse --enable-librubberband --enable-librsvg --enable-libshine --enable-libsnappy --enable-libsoxr --enable-libspeex --enable-libssh --enable-libtheora --enable-libtwolame --enable-libvorbis --enable-libvpx --enable-libwavpack --enable-libwebp --enable-libx265 --enable-libxml2 --enable-libxvid --enable-libzmq --enable-libzvbi --enable-omx --enable-openal --enable-opengl --enable-sdl2 --enable-libdc1394 --enable-libdrm --enable-libiec61883 --enable-chromaprint --enable-frei0r --enable-libopencv --enable-libx264 --enable-shared
  libavutil      55. 78.100 / 55. 78.100
  libavcodec     57.107.100 / 57.107.100
  libavformat    57. 83.100 / 57. 83.100
  libavdevice    57. 10.100 / 57. 10.100
  libavfilter     6.107.100 /  6.107.100
  libavresample   3.  7.  0 /  3.  7.  0
  libswscale      4.  8.100 /  4.  8.100
  libswresample   2.  9.100 /  2.  9.100
  libpostproc    54.  7.100 / 54.  7.100
[rawvideo @ 0x555d191e9a20] Estimating duration from bitrate, this may be inaccurate
Input #0, rawvideo, from '../../SVC-Encoder-20220109T061506Z-001/SVC-Encoder/Dataset/RollerCoaster/6f_2x2/tile_yuv/f4_t0_480x480.yuv':
  Duration: 00:00:10.00, start: 0.000000, bitrate: 82944 kb/s
    Stream #0:0: Video: rawvideo (I420 / 0x30323449), yuv420p, 480x480, 82944 kb/s, 30 tbr, 30 tbn, 30 tbc
Stream mapping:
  Stream #0:0 -> #0:0 (rawvideo (native) -> h264 (libx264))
Press [q] to stop, [?] for help
[libx264 @ 0x555d191f6c60] using cpu capabilities: MMX2 SSE2Fast LZCNT SSSE3 SSE4.2 AVX
[libx264 @ 0x555d191f6c60] profile High, level 3.0
Output #0, rawvideo, to 'RollerCoaster_f4_t0_480x480_x264_QP_32.h264':
  Metadata:
    encoder         : Lavf57.83.100
    Stream #0:0: Video: h264 (libx264), yuv420p, 480x480, q=-1--1, 30 fps, 30 tbn, 30 tbc
    Metadata:
      encoder         : Lavc57.107.100 libx264
    Side data:
      cpb: bitrate max/min/avg: 0/0/0 buffer size: 0 vbv_delay: -1
frame=  167 fps=0.0 q=38.0 PSNR=Y:nan U:nan V:nan *:nan size=      64kB time=00:00:04.13 bitrate= 126.7kbits/s speed=8.24x    frame=  300 fps=288 q=38.0 LPSNR=Y:inf U:inf V:inf *:inf size=     133kB time=00:00:09.93 bitrate= 109.6kbits/s speed=9.54x    
video:133kB audio:0kB subtitle:0kB other streams:0kB global headers:0kB muxing overhead: 0.000000%
[libx264 @ 0x555d191f6c60] frame I:2     Avg QP:30.30  size:  8915  PSNR Mean Y:39.48 U:46.32 V:48.07 Avg:40.87 Global:40.76
[libx264 @ 0x555d191f6c60] frame P:76    Avg QP:31.96  size:  1096  PSNR Mean Y:37.82 U:46.25 V:47.79 Avg:39.32 Global:39.30
[libx264 @ 0x555d191f6c60] frame B:222   Avg QP:37.52  size:   157  PSNR Mean Y:37.60 U:46.18 V:47.76 Avg:39.11 Global:39.10
[libx264 @ 0x555d191f6c60] consecutive B-frames:  1.3%  0.0%  0.0% 98.7%
[libx264 @ 0x555d191f6c60] mb I  I16..4: 22.9% 67.9%  9.2%
[libx264 @ 0x555d191f6c60] mb P  I16..4:  0.2%  0.2%  0.0%  P16..4: 18.9%  5.9%  2.0%  0.0%  0.0%    skip:72.7%
[libx264 @ 0x555d191f6c60] mb B  I16..4:  0.0%  0.0%  0.0%  B16..8: 14.9%  0.2%  0.0%  direct: 0.0%  skip:84.9%  L0:34.5% L1:64.6% BI: 0.8%
[libx264 @ 0x555d191f6c60] 8x8 transform intra:64.8% inter:69.7%
[libx264 @ 0x555d191f6c60] coded y,uvDC,uvAC intra: 37.2% 27.3% 3.2% inter: 1.9% 0.7% 0.0%
[libx264 @ 0x555d191f6c60] i16 v,h,dc,p: 24% 43% 16% 17%
[libx264 @ 0x555d191f6c60] i8 v,h,dc,ddl,ddr,vr,hd,vl,hu:  2%  8% 54%  3%  7%  3% 15%  5%  3%
[libx264 @ 0x555d191f6c60] i4 v,h,dc,ddl,ddr,vr,hd,vl,hu: 11% 12% 17%  4% 19%  6% 24%  4%  4%
[libx264 @ 0x555d191f6c60] i8c dc,h,v,p: 76% 14%  6%  3%
[libx264 @ 0x555d191f6c60] Weighted P-Frames: Y:1.3% UV:0.0%
[libx264 @ 0x555d191f6c60] ref P L0: 60.3% 17.6% 17.0%  5.0%  0.1%
[libx264 @ 0x555d191f6c60] ref B L0: 69.7% 26.7%  3.6%
[libx264 @ 0x555d191f6c60] ref B L1: 75.0% 25.0%
[libx264 @ 0x555d191f6c60] PSNR Mean Y:37.668 U:46.202 V:47.769 Avg:39.178 Global:39.158 kb/s:108.85
